<svg xmlns="http://www.w3.org/2000/svg" xmlns:xlink="http://www.w3.org/1999/xlink" width="200" zoomAndPan="magnify" viewBox="0 0 150 37.5" height="50" preserveAspectRatio="xMidYMid meet" version="1.0"><defs><g/><clipPath id="8bda3b29ca"><path d="M 74 0 L 85.554688 0 L 85.554688 37 L 74 37 Z M 74 0 " clip-rule="nonzero"/></clipPath><clipPath id="2fa70175da"><path d="M 72.789062 27 L 85 27 L 85 37 L 72.789062 37 Z M 72.789062 27 " clip-rule="nonzero"/></clipPath></defs><path fill="#000000" d="M 74.925781 34.757812 C 78.367188 30.859375 82.304688 24.550781 83.074219 19.425781 C 84.023438 13.121094 80.792969 4.804688 76 0.574219 C 75.746094 0.351562 75.714844 0.347656 75.5 0.0703125 L 75.746094 0.105469 C 76.484375 0.3125 77.820312 1.453125 78.375 2 C 82.683594 6.230469 85.546875 13.648438 84.898438 19.65625 C 84.292969 25.25 80.40625 32.027344 76.804688 36.363281 C 76.355469 36.878906 75.574219 36.9375 75.054688 36.492188 C 74.535156 36.050781 74.476562 35.273438 74.925781 34.757812 " fill-opacity="1" fill-rule="evenodd"/><g clip-path="url(#8bda3b29ca)"><path stroke-linecap="butt" transform="matrix(0.0022707, 0, 0, -0.00225424, 72.917054, 36.812626)" fill="none" stroke-linejoin="miter" d="M 884.630878 911.53222 C 2400.204283 2642.643873 4134.254218 5439.454893 4474.87117 7714.679719 C 4891.180777 10509.757894 3468.502904 14200.716675 1357.709977 16075.654421 C 1245.891281 16176.159402 1232.12898 16177.892247 1137.51316 16299.191362 L 1245.891281 16283.595761 C 1571.025644 16193.487847 2159.364015 15685.764409 2403.644859 15444.899024 C 4301.122119 13568.228433 5563.813242 10277.556731 5278.245495 7612.441893 C 5011.600911 5129.275728 3298.194428 2124.523368 1712.08923 199.333131 C 1514.256152 -29.402343 1170.198625 -55.39501 941.40037 142.149263 C 712.602115 337.960691 686.7978 682.796746 884.630878 911.53222 Z M 884.630878 911.53222 " stroke="#000000" stroke-width="4.526" stroke-opacity="1" stroke-miterlimit="2.613"/></g><g clip-path="url(#2fa70175da)"><path fill="#000000" d="M 75.367188 28.839844 L 76.78125 34.1875 L 82.65625 33.355469 C 83.335938 33.257812 83.960938 33.726562 84.058594 34.398438 C 84.15625 35.070312 83.683594 35.695312 83.007812 35.792969 C 77.671875 36.546875 76.039062 36.78125 76.039062 36.78125 C 75.324219 36.816406 74.910156 36.542969 74.664062 35.875 C 74.664062 35.875 72.972656 29.488281 72.96875 29.46875 C 72.792969 28.8125 73.1875 28.136719 73.851562 27.964844 C 74.511719 27.792969 75.191406 28.183594 75.367188 28.839844 " fill-opacity="1" fill-rule="evenodd"/><path stroke-linecap="butt" transform="matrix(0.00205493, 0, 0, -0.00204004, 72.917054, 36.812626)" fill="none" stroke-linejoin="miter" d="M 1192.320783 3908.155168 L 1880.453009 1286.803041 L 4739.433306 1694.65403 C 5070.192995 1742.523864 5374.339835 1512.748659 5421.862779 1183.404199 C 5469.385722 854.059739 5239.374675 547.6928 4910.515904 499.822965 C 2313.862256 130.267845 1519.278636 15.380242 1519.278636 15.380242 C 1171.410687 -1.852898 969.913406 132.182638 850.155588 459.612305 C 850.155588 459.612305 27.058201 3590.299468 25.157284 3599.873435 C -60.384015 3921.558721 131.608678 4252.817975 454.764695 4337.068883 C 776.019795 4421.319791 1106.779484 4229.840454 1192.320783 3908.155168 Z M 1192.320783 3908.155168 " stroke="#000000" stroke-width="5" stroke-opacity="1" stroke-miterlimit="2.613"/></g><g fill="#ffffff" fill-opacity="1"><g transform="translate(28.835372, 22.038851)"><g><path d="M 9.859375 -9.5 C 9.859375 -9.257812 9.820312 -8.953125 9.75 -8.578125 C 9.6875 -8.210938 9.582031 -7.710938 9.4375 -7.078125 C 9.195312 -6.015625 9.003906 -5.066406 8.859375 -4.234375 C 8.722656 -3.410156 8.65625 -2.59375 8.65625 -1.78125 C 8.65625 -1.363281 8.6875 -1.0625 8.75 -0.875 C 8.820312 -0.6875 8.929688 -0.503906 9.078125 -0.328125 C 8.835938 -0.109375 8.566406 0.0546875 8.265625 0.171875 C 7.960938 0.285156 7.675781 0.34375 7.40625 0.34375 C 6.863281 0.34375 6.472656 0.1875 6.234375 -0.125 C 5.992188 -0.445312 5.875 -0.941406 5.875 -1.609375 L 5.875 -1.65625 L 5.734375 -1.71875 C 5.472656 -1.070312 5.101562 -0.566406 4.625 -0.203125 C 4.15625 0.160156 3.628906 0.34375 3.046875 0.34375 C 2.546875 0.34375 2.101562 0.210938 1.71875 -0.046875 C 1.332031 -0.304688 1.035156 -0.675781 0.828125 -1.15625 C 0.628906 -1.644531 0.53125 -2.203125 0.53125 -2.828125 C 0.53125 -3.796875 0.753906 -4.648438 1.203125 -5.390625 C 1.660156 -6.140625 2.296875 -6.71875 3.109375 -7.125 C 3.921875 -7.539062 4.851562 -7.75 5.90625 -7.75 C 6.238281 -7.75 6.546875 -7.722656 6.828125 -7.671875 L 6.9375 -8.390625 L 6.1875 -9.46875 C 6.59375 -9.757812 7.015625 -9.992188 7.453125 -10.171875 C 7.898438 -10.359375 8.320312 -10.453125 8.71875 -10.453125 C 9.132812 -10.453125 9.425781 -10.375 9.59375 -10.21875 C 9.769531 -10.070312 9.859375 -9.832031 9.859375 -9.5 Z M 6.09375 -3.515625 C 6.195312 -4.160156 6.367188 -5.15625 6.609375 -6.5 C 5.972656 -6.4375 5.394531 -6.253906 4.875 -5.953125 C 4.351562 -5.660156 3.941406 -5.285156 3.640625 -4.828125 C 3.347656 -4.367188 3.203125 -3.878906 3.203125 -3.359375 C 3.203125 -2.921875 3.289062 -2.582031 3.46875 -2.34375 C 3.65625 -2.101562 3.914062 -1.984375 4.25 -1.984375 C 4.601562 -1.984375 4.941406 -2.117188 5.265625 -2.390625 C 5.597656 -2.671875 5.875 -3.046875 6.09375 -3.515625 Z M 6.09375 -3.515625 "/></g></g></g><g fill="#ffffff" fill-opacity="1"><g transform="translate(38.777521, 22.038851)"><g><path d="M 7.390625 -7.0625 C 7.910156 -7.0625 8.332031 -6.851562 8.65625 -6.4375 C 8.988281 -6.019531 9.15625 -5.476562 9.15625 -4.8125 C 9.15625 -3.863281 8.9375 -2.992188 8.5 -2.203125 C 8.070312 -1.421875 7.488281 -0.800781 6.75 -0.34375 C 6.007812 0.113281 5.191406 0.34375 4.296875 0.34375 C 3.554688 0.34375 2.90625 0.195312 2.34375 -0.09375 C 1.789062 -0.394531 1.363281 -0.8125 1.0625 -1.34375 C 0.757812 -1.875 0.609375 -2.492188 0.609375 -3.203125 C 0.609375 -4.148438 0.828125 -4.992188 1.265625 -5.734375 C 1.703125 -6.472656 2.3125 -7.050781 3.09375 -7.46875 C 3.875 -7.882812 4.753906 -8.09375 5.734375 -8.09375 C 6.035156 -8.09375 6.351562 -8.054688 6.6875 -7.984375 C 6.78125 -7.671875 6.820312 -7.328125 6.8125 -6.953125 C 7.007812 -7.023438 7.203125 -7.0625 7.390625 -7.0625 Z M 4.734375 -1.046875 C 5.253906 -1.046875 5.6875 -1.253906 6.03125 -1.671875 C 6.375 -2.085938 6.59375 -2.660156 6.6875 -3.390625 C 6 -3.765625 5.65625 -4.335938 5.65625 -5.109375 C 5.65625 -5.492188 5.738281 -5.84375 5.90625 -6.15625 C 6.082031 -6.46875 6.316406 -6.703125 6.609375 -6.859375 C 5.941406 -6.828125 5.351562 -6.640625 4.84375 -6.296875 C 4.34375 -5.960938 3.957031 -5.523438 3.6875 -4.984375 C 3.414062 -4.441406 3.28125 -3.84375 3.28125 -3.1875 C 3.28125 -2.445312 3.40625 -1.90625 3.65625 -1.5625 C 3.914062 -1.21875 4.273438 -1.046875 4.734375 -1.046875 Z M 4.734375 -1.046875 "/></g></g></g><g fill="#ffffff" fill-opacity="1"><g transform="translate(48.287989, 22.038851)"><g><path d="M 12.546875 -6.953125 C 12.546875 -6.679688 12.492188 -6.359375 12.390625 -5.984375 C 12.285156 -5.617188 12.085938 -5.109375 11.796875 -4.453125 C 11.515625 -3.804688 11.085938 -2.867188 10.515625 -1.640625 L 10.828125 -0.9375 C 10.484375 -0.5625 10.046875 -0.253906 9.515625 -0.015625 C 8.992188 0.222656 8.492188 0.34375 8.015625 0.34375 C 7.429688 0.34375 6.988281 0.207031 6.6875 -0.0625 C 6.394531 -0.34375 6.179688 -0.796875 6.046875 -1.421875 C 5.648438 -0.847656 5.238281 -0.410156 4.8125 -0.109375 C 4.394531 0.191406 3.878906 0.34375 3.265625 0.34375 C 2.554688 0.34375 2.046875 0.117188 1.734375 -0.328125 C 1.429688 -0.785156 1.28125 -1.53125 1.28125 -2.5625 L 1.296875 -4.296875 C 1.296875 -5.109375 1.242188 -5.765625 1.140625 -6.265625 C 1.046875 -6.773438 0.847656 -7.191406 0.546875 -7.515625 C 1.035156 -7.898438 1.566406 -8.09375 2.140625 -8.09375 C 2.742188 -8.09375 3.195312 -7.84375 3.5 -7.34375 C 3.8125 -6.851562 3.96875 -6 3.96875 -4.78125 L 3.953125 -2.8125 C 3.941406 -2.4375 3.9375 -1.9375 3.9375 -1.3125 L 4.078125 -1.3125 C 4.804688 -2.039062 5.367188 -2.984375 5.765625 -4.140625 L 5.484375 -7.21875 C 5.734375 -7.382812 5.960938 -7.503906 6.171875 -7.578125 C 6.390625 -7.648438 6.582031 -7.6875 6.75 -7.6875 C 7.53125 -7.6875 7.921875 -7.265625 7.921875 -6.421875 C 7.921875 -5.785156 7.753906 -5.003906 7.421875 -4.078125 L 7.578125 -1.3125 L 7.71875 -1.3125 C 8.382812 -2.445312 8.898438 -3.484375 9.265625 -4.421875 C 9.628906 -5.367188 9.8125 -6.0625 9.8125 -6.5 C 9.8125 -6.84375 9.726562 -7.179688 9.5625 -7.515625 C 9.78125 -7.679688 10.054688 -7.816406 10.390625 -7.921875 C 10.734375 -8.035156 11.0625 -8.09375 11.375 -8.09375 C 12.15625 -8.09375 12.546875 -7.710938 12.546875 -6.953125 Z M 12.546875 -6.953125 "/></g></g></g><g fill="#ffffff" fill-opacity="1"><g transform="translate(60.995599, 22.038851)"><g><path d="M 2.3125 0.34375 C 1.769531 0.34375 1.367188 0.203125 1.109375 -0.078125 C 0.859375 -0.359375 0.734375 -0.773438 0.734375 -1.328125 C 0.734375 -1.691406 0.828125 -2.390625 1.015625 -3.421875 C 1.203125 -4.453125 1.394531 -5.394531 1.59375 -6.25 L 0.890625 -7.328125 C 1.773438 -7.835938 2.609375 -8.09375 3.390625 -8.09375 C 3.753906 -8.09375 4.023438 -8 4.203125 -7.8125 C 4.390625 -7.632812 4.484375 -7.382812 4.484375 -7.0625 C 4.484375 -6.84375 4.453125 -6.609375 4.390625 -6.359375 C 4.335938 -6.109375 4.269531 -5.882812 4.1875 -5.6875 L 4.3125 -5.625 C 5.28125 -7.269531 6.503906 -8.09375 7.984375 -8.09375 C 8.535156 -8.09375 8.941406 -7.957031 9.203125 -7.6875 C 9.472656 -7.425781 9.609375 -7.015625 9.609375 -6.453125 C 9.609375 -6.148438 9.578125 -5.832031 9.515625 -5.5 C 9.453125 -5.164062 9.359375 -4.722656 9.234375 -4.171875 C 9.085938 -3.566406 8.976562 -3.070312 8.90625 -2.6875 C 8.84375 -2.300781 8.8125 -1.921875 8.8125 -1.546875 C 8.8125 -0.992188 8.910156 -0.585938 9.109375 -0.328125 C 8.628906 0.117188 8.132812 0.34375 7.625 0.34375 C 7.070312 0.34375 6.671875 0.203125 6.421875 -0.078125 C 6.171875 -0.359375 6.046875 -0.773438 6.046875 -1.328125 C 6.046875 -1.703125 6.082031 -2.082031 6.15625 -2.46875 C 6.238281 -2.851562 6.359375 -3.296875 6.515625 -3.796875 C 6.628906 -4.203125 6.710938 -4.523438 6.765625 -4.765625 C 6.816406 -5.003906 6.84375 -5.21875 6.84375 -5.40625 C 6.84375 -5.78125 6.691406 -5.96875 6.390625 -5.96875 C 6.046875 -5.96875 5.644531 -5.769531 5.1875 -5.375 C 4.726562 -4.988281 4.332031 -4.457031 4 -3.78125 C 3.675781 -3.101562 3.515625 -2.359375 3.515625 -1.546875 C 3.515625 -0.992188 3.609375 -0.585938 3.796875 -0.328125 C 3.328125 0.117188 2.832031 0.34375 2.3125 0.34375 Z M 2.3125 0.34375 "/></g></g></g><g fill="#ffffff" fill-opacity="1"><g transform="translate(71.032179, 22.038851)"><g><path d="M 5.65625 -7.453125 C 6.019531 -7.453125 6.265625 -7.398438 6.390625 -7.296875 C 6.523438 -7.203125 6.59375 -7.015625 6.59375 -6.734375 C 6.59375 -6.472656 6.519531 -6.164062 6.375 -5.8125 C 6 -5.9375 5.578125 -6 5.109375 -6 L 4.890625 -6 C 4.679688 -5.257812 4.507812 -4.546875 4.375 -3.859375 C 4.25 -3.171875 4.175781 -2.476562 4.15625 -1.78125 L 4.90625 -0.515625 C 4.613281 -0.234375 4.289062 -0.0195312 3.9375 0.125 C 3.582031 0.269531 3.238281 0.34375 2.90625 0.34375 C 2.425781 0.34375 2.046875 0.222656 1.765625 -0.015625 C 1.492188 -0.265625 1.359375 -0.71875 1.359375 -1.375 C 1.359375 -1.800781 1.410156 -2.28125 1.515625 -2.8125 C 1.628906 -3.351562 1.785156 -4.039062 1.984375 -4.875 L 2.203125 -5.734375 C 2.128906 -5.722656 2.015625 -5.71875 1.859375 -5.71875 C 1.503906 -5.71875 1.257812 -5.765625 1.125 -5.859375 C 1 -5.960938 0.9375 -6.15625 0.9375 -6.4375 C 0.9375 -6.707031 1.003906 -7.007812 1.140625 -7.34375 C 1.523438 -7.226562 1.9375 -7.171875 2.375 -7.171875 C 2.34375 -7.566406 2.238281 -7.984375 2.0625 -8.421875 C 2.40625 -8.722656 2.785156 -8.960938 3.203125 -9.140625 C 3.617188 -9.316406 4.046875 -9.40625 4.484375 -9.40625 C 4.847656 -9.40625 5.109375 -9.320312 5.265625 -9.15625 C 5.421875 -9 5.5 -8.738281 5.5 -8.375 C 5.5 -8.195312 5.441406 -7.882812 5.328125 -7.4375 C 5.398438 -7.445312 5.507812 -7.453125 5.65625 -7.453125 Z M 5.65625 -7.453125 "/></g></g></g><g fill="#ffffff" fill-opacity="1"><g transform="translate(77.102936, 22.038851)"><g/></g></g><g fill="#ffffff" fill-opacity="1"><g transform="translate(80.96107, 22.038851)"><g/></g></g><g fill="#ffffff" fill-opacity="1"><g transform="translate(84.819204, 22.038851)"><g/></g></g><g fill="#ffffff" fill-opacity="1"><g transform="translate(88.679056, 22.038851)"><g><path d="M 2.3125 0.34375 C 1.769531 0.34375 1.367188 0.203125 1.109375 -0.078125 C 0.859375 -0.359375 0.734375 -0.773438 0.734375 -1.328125 C 0.734375 -1.691406 0.828125 -2.390625 1.015625 -3.421875 C 1.203125 -4.453125 1.394531 -5.394531 1.59375 -6.25 L 0.890625 -7.328125 C 1.773438 -7.835938 2.609375 -8.09375 3.390625 -8.09375 C 3.753906 -8.09375 4.023438 -8 4.203125 -7.8125 C 4.390625 -7.632812 4.484375 -7.382812 4.484375 -7.0625 C 4.484375 -6.84375 4.453125 -6.609375 4.390625 -6.359375 C 4.335938 -6.109375 4.269531 -5.882812 4.1875 -5.6875 L 4.3125 -5.625 C 4.820312 -6.5 5.363281 -7.128906 5.9375 -7.515625 C 6.519531 -7.898438 7.15625 -8.09375 7.84375 -8.09375 C 8.351562 -8.09375 8.753906 -7.960938 9.046875 -7.703125 C 9.335938 -7.453125 9.484375 -7.078125 9.484375 -6.578125 C 9.484375 -6.304688 9.4375 -6.007812 9.34375 -5.6875 L 9.484375 -5.625 C 9.992188 -6.5 10.535156 -7.128906 11.109375 -7.515625 C 11.679688 -7.898438 12.316406 -8.09375 13.015625 -8.09375 C 13.554688 -8.09375 13.960938 -7.957031 14.234375 -7.6875 C 14.503906 -7.425781 14.640625 -7.015625 14.640625 -6.453125 C 14.640625 -6.148438 14.609375 -5.832031 14.546875 -5.5 C 14.484375 -5.164062 14.390625 -4.722656 14.265625 -4.171875 C 14.117188 -3.566406 14.007812 -3.070312 13.9375 -2.6875 C 13.875 -2.300781 13.84375 -1.921875 13.84375 -1.546875 C 13.84375 -0.992188 13.9375 -0.585938 14.125 -0.328125 C 13.65625 0.117188 13.164062 0.34375 12.65625 0.34375 C 12.09375 0.34375 11.6875 0.210938 11.4375 -0.046875 C 11.195312 -0.304688 11.078125 -0.691406 11.078125 -1.203125 C 11.078125 -1.617188 11.117188 -2.019531 11.203125 -2.40625 C 11.285156 -2.800781 11.40625 -3.265625 11.5625 -3.796875 C 11.664062 -4.179688 11.742188 -4.488281 11.796875 -4.71875 C 11.847656 -4.945312 11.875 -5.160156 11.875 -5.359375 C 11.875 -5.765625 11.722656 -5.96875 11.421875 -5.96875 C 11.078125 -5.96875 10.6875 -5.769531 10.25 -5.375 C 9.8125 -4.988281 9.441406 -4.457031 9.140625 -3.78125 C 8.835938 -3.113281 8.6875 -2.367188 8.6875 -1.546875 C 8.6875 -0.992188 8.78125 -0.585938 8.96875 -0.328125 C 8.488281 0.117188 7.992188 0.34375 7.484375 0.34375 C 6.921875 0.34375 6.515625 0.210938 6.265625 -0.046875 C 6.023438 -0.304688 5.90625 -0.691406 5.90625 -1.203125 C 5.90625 -1.617188 5.945312 -2.019531 6.03125 -2.40625 C 6.113281 -2.800781 6.234375 -3.265625 6.390625 -3.796875 C 6.492188 -4.179688 6.570312 -4.488281 6.625 -4.71875 C 6.6875 -4.945312 6.71875 -5.160156 6.71875 -5.359375 C 6.71875 -5.765625 6.5625 -5.96875 6.25 -5.96875 C 5.914062 -5.96875 5.53125 -5.769531 5.09375 -5.375 C 4.65625 -4.988281 4.28125 -4.457031 3.96875 -3.78125 C 3.664062 -3.113281 3.515625 -2.367188 3.515625 -1.546875 C 3.515625 -0.992188 3.609375 -0.585938 3.796875 -0.328125 C 3.328125 0.117188 2.832031 0.34375 2.3125 0.34375 Z M 2.3125 0.34375 "/></g></g></g><g fill="#ffffff" fill-opacity="1"><g transform="translate(103.747426, 22.038851)"><g><path d="M 8.5 -6.140625 C 8.5 -5.515625 8.285156 -4.972656 7.859375 -4.515625 C 7.441406 -4.066406 6.835938 -3.722656 6.046875 -3.484375 C 5.265625 -3.242188 4.332031 -3.125 3.25 -3.125 L 3.25 -3 C 3.25 -2.394531 3.351562 -1.914062 3.5625 -1.5625 C 3.78125 -1.21875 4.078125 -1.046875 4.453125 -1.046875 C 4.910156 -1.046875 5.285156 -1.210938 5.578125 -1.546875 C 5.878906 -1.890625 6.035156 -2.335938 6.046875 -2.890625 C 6.585938 -2.890625 7 -2.789062 7.28125 -2.59375 C 7.570312 -2.394531 7.71875 -2.101562 7.71875 -1.71875 C 7.71875 -1.34375 7.554688 -1 7.234375 -0.6875 C 6.921875 -0.375 6.492188 -0.125 5.953125 0.0625 C 5.410156 0.25 4.8125 0.34375 4.15625 0.34375 C 3.03125 0.34375 2.148438 0.046875 1.515625 -0.546875 C 0.890625 -1.140625 0.578125 -1.96875 0.578125 -3.03125 C 0.578125 -4 0.804688 -4.863281 1.265625 -5.625 C 1.722656 -6.394531 2.351562 -7 3.15625 -7.4375 C 3.96875 -7.875 4.878906 -8.09375 5.890625 -8.09375 C 6.722656 -8.09375 7.363281 -7.921875 7.8125 -7.578125 C 8.269531 -7.234375 8.5 -6.753906 8.5 -6.140625 Z M 5.4375 -6.515625 C 5 -6.515625 4.585938 -6.289062 4.203125 -5.84375 C 3.816406 -5.394531 3.546875 -4.828125 3.390625 -4.140625 C 4.273438 -4.210938 4.957031 -4.394531 5.4375 -4.6875 C 5.914062 -4.988281 6.15625 -5.378906 6.15625 -5.859375 C 6.15625 -6.054688 6.085938 -6.210938 5.953125 -6.328125 C 5.828125 -6.453125 5.65625 -6.515625 5.4375 -6.515625 Z M 5.4375 -6.515625 "/></g></g></g><g fill="#ffffff" fill-opacity="1"><g transform="translate(112.475472, 22.038851)"><g><path d="M 1.84375 0.34375 C 1.4375 0.34375 1.09375 0.207031 0.8125 -0.0625 C 0.539062 -0.34375 0.40625 -0.679688 0.40625 -1.078125 C 0.40625 -1.378906 0.476562 -1.660156 0.625 -1.921875 C 0.78125 -2.179688 0.988281 -2.390625 1.25 -2.546875 C 1.507812 -2.710938 1.796875 -2.796875 2.109375 -2.796875 C 2.515625 -2.796875 2.851562 -2.65625 3.125 -2.375 C 3.40625 -2.101562 3.546875 -1.769531 3.546875 -1.375 C 3.546875 -1.082031 3.46875 -0.800781 3.3125 -0.53125 C 3.164062 -0.269531 2.960938 -0.0625 2.703125 0.09375 C 2.441406 0.257812 2.15625 0.34375 1.84375 0.34375 Z M 1.84375 0.34375 "/></g></g></g></svg>