<svg xmlns="http://www.w3.org/2000/svg" xmlns:xlink="http://www.w3.org/1999/xlink" width="200" zoomAndPan="magnify" viewBox="0 0 150 37.5" height="50" preserveAspectRatio="xMidYMid meet" version="1.0"><defs><g/><clipPath id="cd7e7b21cf"><path d="M 74 9.203125 L 80 9.203125 L 80 27.800781 L 74 27.800781 Z M 74 9.203125 " clip-rule="nonzero"/></clipPath><clipPath id="f16c1272d2"><path d="M 73.671875 23 L 80 23 L 80 27.800781 L 73.671875 27.800781 Z M 73.671875 23 " clip-rule="nonzero"/></clipPath></defs><g clip-path="url(#cd7e7b21cf)"><path fill="#000000" d="M 74.746094 26.671875 C 76.476562 24.710938 78.453125 21.542969 78.839844 18.964844 C 79.316406 15.800781 77.695312 11.617188 75.285156 9.492188 C 75.160156 9.382812 75.140625 9.378906 75.035156 9.242188 L 75.15625 9.257812 C 75.527344 9.363281 76.199219 9.9375 76.480469 10.210938 C 78.644531 12.335938 80.082031 16.0625 79.757812 19.082031 C 79.453125 21.894531 77.5 25.296875 75.6875 27.480469 C 75.464844 27.738281 75.070312 27.765625 74.8125 27.542969 C 74.550781 27.320312 74.519531 26.929688 74.746094 26.671875 " fill-opacity="1" fill-rule="evenodd"/><path stroke-linecap="butt" transform="matrix(0.0011411, 0, 0, -0.00113283, 73.736158, 27.70433)" fill="none" stroke-linejoin="miter" d="M 885.05544 911.394446 C 2401.54836 2642.401934 4133.705059 5438.910048 4472.605283 7714.736626 C 4890.239902 10511.244739 3469.59755 14200.842373 1357.461813 16076.675189 C 1247.918306 16176.673629 1230.802133 16176.673629 1138.374799 16300.809624 L 1244.495071 16283.568514 C 1569.702357 16193.91474 2158.498705 15687.026093 2404.971595 15445.650547 C 4301.443554 13566.369509 5564.617115 10276.765637 5277.06541 7611.289963 C 5010.053112 5128.57006 3298.435821 2125.168621 1713.478209 197.612474 C 1514.930603 -29.970184 1169.183911 -54.107738 943.250428 142.440921 C 713.893711 338.98958 686.507834 683.811789 885.05544 911.394446 Z M 885.05544 911.394446 " stroke="#000000" stroke-width="4.526" stroke-opacity="1" stroke-miterlimit="2.613"/></g><g clip-path="url(#f16c1272d2)"><path fill="#000000" d="M 74.964844 23.699219 L 75.679688 26.386719 L 78.628906 25.964844 C 78.972656 25.917969 79.285156 26.152344 79.335938 26.492188 C 79.382812 26.828125 79.148438 27.144531 78.808594 27.191406 C 76.125 27.570312 75.304688 27.6875 75.304688 27.6875 C 74.945312 27.707031 74.738281 27.570312 74.613281 27.234375 C 74.613281 27.234375 73.765625 24.023438 73.761719 24.011719 C 73.671875 23.683594 73.871094 23.34375 74.207031 23.257812 C 74.539062 23.171875 74.878906 23.367188 74.964844 23.699219 " fill-opacity="1" fill-rule="evenodd"/><path stroke-linecap="butt" transform="matrix(0.00103267, 0, 0, -0.00102519, 73.736158, 27.70433)" fill="none" stroke-linejoin="miter" d="M 1189.816082 3906.718058 L 1882.045501 1285.241698 L 4737.964688 1696.752522 C 5070.840037 1742.475947 5373.453991 1513.858823 5422.628758 1182.363992 C 5468.020851 854.679447 5241.060386 546.046329 4911.967712 500.322904 C 2313.270385 130.72522 1518.908757 16.416657 1518.908757 16.416657 C 1170.90271 -2.63477 970.420966 130.72522 849.375384 458.409765 C 849.375384 458.409765 28.535035 3590.46437 24.752361 3601.895226 C -62.249151 3921.9592 130.667245 4253.454031 455.977245 4337.280309 C 777.50457 4421.106588 1106.597245 4230.592318 1189.816082 3906.718058 Z M 1189.816082 3906.718058 " stroke="#000000" stroke-width="5" stroke-opacity="1" stroke-miterlimit="2.613"/></g><g fill="#057ea8" fill-opacity="1"><g transform="translate(51.583663, 20.21538)"><g><path d="M 4.953125 -4.78125 C 4.953125 -4.65625 4.9375 -4.5 4.90625 -4.3125 C 4.875 -4.132812 4.820312 -3.882812 4.75 -3.5625 C 4.625 -3.03125 4.523438 -2.550781 4.453125 -2.125 C 4.390625 -1.707031 4.359375 -1.296875 4.359375 -0.890625 C 4.359375 -0.679688 4.375 -0.53125 4.40625 -0.4375 C 4.4375 -0.34375 4.488281 -0.25 4.5625 -0.15625 C 4.4375 -0.0507812 4.296875 0.0234375 4.140625 0.078125 C 3.992188 0.140625 3.851562 0.171875 3.71875 0.171875 C 3.445312 0.171875 3.25 0.09375 3.125 -0.0625 C 3.007812 -0.226562 2.953125 -0.476562 2.953125 -0.8125 L 2.953125 -0.828125 L 2.875 -0.875 C 2.75 -0.539062 2.566406 -0.28125 2.328125 -0.09375 C 2.085938 0.0820312 1.820312 0.171875 1.53125 0.171875 C 1.28125 0.171875 1.054688 0.109375 0.859375 -0.015625 C 0.671875 -0.148438 0.523438 -0.335938 0.421875 -0.578125 C 0.316406 -0.828125 0.265625 -1.109375 0.265625 -1.421875 C 0.265625 -1.910156 0.378906 -2.34375 0.609375 -2.71875 C 0.835938 -3.09375 1.15625 -3.382812 1.5625 -3.59375 C 1.96875 -3.800781 2.4375 -3.90625 2.96875 -3.90625 C 3.132812 -3.90625 3.289062 -3.890625 3.4375 -3.859375 L 3.5 -4.21875 L 3.109375 -4.765625 C 3.316406 -4.910156 3.53125 -5.023438 3.75 -5.109375 C 3.96875 -5.203125 4.175781 -5.25 4.375 -5.25 C 4.59375 -5.25 4.742188 -5.210938 4.828125 -5.140625 C 4.910156 -5.066406 4.953125 -4.945312 4.953125 -4.78125 Z M 3.0625 -1.765625 C 3.113281 -2.097656 3.203125 -2.597656 3.328125 -3.265625 C 3.003906 -3.234375 2.710938 -3.144531 2.453125 -3 C 2.191406 -2.851562 1.984375 -2.660156 1.828125 -2.421875 C 1.679688 -2.191406 1.609375 -1.945312 1.609375 -1.6875 C 1.609375 -1.46875 1.65625 -1.296875 1.75 -1.171875 C 1.84375 -1.054688 1.972656 -1 2.140625 -1 C 2.316406 -1 2.484375 -1.066406 2.640625 -1.203125 C 2.804688 -1.335938 2.945312 -1.523438 3.0625 -1.765625 Z M 3.0625 -1.765625 "/></g></g></g><g fill="#057ea8" fill-opacity="1"><g transform="translate(56.580527, 20.21538)"><g><path d="M 3.71875 -3.546875 C 3.976562 -3.546875 4.191406 -3.441406 4.359375 -3.234375 C 4.523438 -3.023438 4.609375 -2.753906 4.609375 -2.421875 C 4.609375 -1.941406 4.5 -1.503906 4.28125 -1.109375 C 4.0625 -0.710938 3.765625 -0.398438 3.390625 -0.171875 C 3.015625 0.0546875 2.601562 0.171875 2.15625 0.171875 C 1.78125 0.171875 1.453125 0.0976562 1.171875 -0.046875 C 0.898438 -0.191406 0.6875 -0.398438 0.53125 -0.671875 C 0.382812 -0.941406 0.3125 -1.253906 0.3125 -1.609375 C 0.3125 -2.085938 0.421875 -2.507812 0.640625 -2.875 C 0.859375 -3.25 1.160156 -3.539062 1.546875 -3.75 C 1.941406 -3.957031 2.382812 -4.0625 2.875 -4.0625 C 3.03125 -4.0625 3.191406 -4.046875 3.359375 -4.015625 C 3.410156 -3.859375 3.429688 -3.6875 3.421875 -3.5 C 3.523438 -3.53125 3.625 -3.546875 3.71875 -3.546875 Z M 2.375 -0.53125 C 2.644531 -0.53125 2.863281 -0.632812 3.03125 -0.84375 C 3.207031 -1.050781 3.316406 -1.335938 3.359375 -1.703125 C 3.015625 -1.890625 2.84375 -2.175781 2.84375 -2.5625 C 2.84375 -2.757812 2.882812 -2.9375 2.96875 -3.09375 C 3.0625 -3.25 3.179688 -3.367188 3.328125 -3.453125 C 2.992188 -3.429688 2.695312 -3.335938 2.4375 -3.171875 C 2.1875 -3.003906 1.988281 -2.78125 1.84375 -2.5 C 1.707031 -2.226562 1.640625 -1.925781 1.640625 -1.59375 C 1.640625 -1.226562 1.703125 -0.957031 1.828125 -0.78125 C 1.960938 -0.613281 2.144531 -0.53125 2.375 -0.53125 Z M 2.375 -0.53125 "/></g></g></g><g fill="#057ea8" fill-opacity="1"><g transform="translate(61.360431, 20.21538)"><g><path d="M 6.3125 -3.5 C 6.3125 -3.351562 6.285156 -3.1875 6.234375 -3 C 6.179688 -2.820312 6.082031 -2.566406 5.9375 -2.234375 C 5.789062 -1.910156 5.578125 -1.441406 5.296875 -0.828125 L 5.453125 -0.46875 C 5.273438 -0.28125 5.050781 -0.125 4.78125 0 C 4.519531 0.113281 4.269531 0.171875 4.03125 0.171875 C 3.738281 0.171875 3.515625 0.101562 3.359375 -0.03125 C 3.210938 -0.175781 3.109375 -0.40625 3.046875 -0.71875 C 2.835938 -0.425781 2.628906 -0.203125 2.421875 -0.046875 C 2.210938 0.0976562 1.953125 0.171875 1.640625 0.171875 C 1.285156 0.171875 1.03125 0.0546875 0.875 -0.171875 C 0.71875 -0.398438 0.640625 -0.769531 0.640625 -1.28125 L 0.65625 -2.15625 C 0.65625 -2.570312 0.628906 -2.90625 0.578125 -3.15625 C 0.523438 -3.414062 0.421875 -3.625 0.265625 -3.78125 C 0.515625 -3.96875 0.785156 -4.0625 1.078125 -4.0625 C 1.378906 -4.0625 1.609375 -3.9375 1.765625 -3.6875 C 1.921875 -3.445312 2 -3.019531 2 -2.40625 L 1.984375 -1.421875 C 1.984375 -1.222656 1.984375 -0.96875 1.984375 -0.65625 L 2.046875 -0.65625 C 2.421875 -1.03125 2.707031 -1.503906 2.90625 -2.078125 L 2.765625 -3.625 C 2.878906 -3.707031 2.988281 -3.765625 3.09375 -3.796875 C 3.207031 -3.835938 3.304688 -3.859375 3.390625 -3.859375 C 3.785156 -3.859375 3.984375 -3.648438 3.984375 -3.234375 C 3.984375 -2.910156 3.898438 -2.519531 3.734375 -2.0625 L 3.8125 -0.65625 L 3.875 -0.65625 C 4.21875 -1.226562 4.476562 -1.75 4.65625 -2.21875 C 4.84375 -2.695312 4.9375 -3.046875 4.9375 -3.265625 C 4.9375 -3.441406 4.894531 -3.613281 4.8125 -3.78125 C 4.925781 -3.863281 5.066406 -3.929688 5.234375 -3.984375 C 5.398438 -4.035156 5.5625 -4.0625 5.71875 -4.0625 C 6.113281 -4.0625 6.3125 -3.875 6.3125 -3.5 Z M 6.3125 -3.5 "/></g></g></g><g fill="#057ea8" fill-opacity="1"><g transform="translate(67.747188, 20.21538)"><g><path d="M 1.171875 0.171875 C 0.890625 0.171875 0.6875 0.101562 0.5625 -0.03125 C 0.4375 -0.175781 0.375 -0.390625 0.375 -0.671875 C 0.375 -0.847656 0.421875 -1.195312 0.515625 -1.71875 C 0.609375 -2.238281 0.703125 -2.710938 0.796875 -3.140625 L 0.453125 -3.6875 C 0.898438 -3.9375 1.316406 -4.0625 1.703125 -4.0625 C 1.890625 -4.0625 2.03125 -4.015625 2.125 -3.921875 C 2.21875 -3.835938 2.265625 -3.710938 2.265625 -3.546875 C 2.265625 -3.441406 2.25 -3.328125 2.21875 -3.203125 C 2.1875 -3.078125 2.148438 -2.960938 2.109375 -2.859375 L 2.171875 -2.828125 C 2.648438 -3.648438 3.265625 -4.0625 4.015625 -4.0625 C 4.285156 -4.0625 4.488281 -3.992188 4.625 -3.859375 C 4.757812 -3.734375 4.828125 -3.53125 4.828125 -3.25 C 4.828125 -3.09375 4.8125 -2.929688 4.78125 -2.765625 C 4.75 -2.597656 4.703125 -2.375 4.640625 -2.09375 C 4.566406 -1.789062 4.515625 -1.539062 4.484375 -1.34375 C 4.453125 -1.15625 4.4375 -0.96875 4.4375 -0.78125 C 4.4375 -0.5 4.484375 -0.289062 4.578125 -0.15625 C 4.335938 0.0625 4.085938 0.171875 3.828125 0.171875 C 3.554688 0.171875 3.351562 0.101562 3.21875 -0.03125 C 3.09375 -0.175781 3.03125 -0.390625 3.03125 -0.671875 C 3.03125 -0.859375 3.050781 -1.046875 3.09375 -1.234375 C 3.132812 -1.429688 3.195312 -1.65625 3.28125 -1.90625 C 3.332031 -2.113281 3.367188 -2.273438 3.390625 -2.390625 C 3.421875 -2.515625 3.4375 -2.625 3.4375 -2.71875 C 3.4375 -2.90625 3.363281 -3 3.21875 -3 C 3.039062 -3 2.835938 -2.898438 2.609375 -2.703125 C 2.378906 -2.515625 2.179688 -2.25 2.015625 -1.90625 C 1.847656 -1.5625 1.765625 -1.1875 1.765625 -0.78125 C 1.765625 -0.5 1.8125 -0.289062 1.90625 -0.15625 C 1.664062 0.0625 1.421875 0.171875 1.171875 0.171875 Z M 1.171875 0.171875 "/></g></g></g><g fill="#057ea8" fill-opacity="1"><g transform="translate(72.791512, 20.21538)"><g><path d="M 2.84375 -3.75 C 3.03125 -3.75 3.15625 -3.722656 3.21875 -3.671875 C 3.28125 -3.617188 3.3125 -3.523438 3.3125 -3.390625 C 3.3125 -3.253906 3.273438 -3.097656 3.203125 -2.921875 C 3.015625 -2.984375 2.800781 -3.015625 2.5625 -3.015625 L 2.46875 -3.015625 C 2.363281 -2.648438 2.273438 -2.289062 2.203125 -1.9375 C 2.140625 -1.59375 2.101562 -1.242188 2.09375 -0.890625 L 2.46875 -0.25 C 2.320312 -0.113281 2.160156 -0.0078125 1.984375 0.0625 C 1.804688 0.132812 1.632812 0.171875 1.46875 0.171875 C 1.21875 0.171875 1.023438 0.109375 0.890625 -0.015625 C 0.753906 -0.140625 0.6875 -0.363281 0.6875 -0.6875 C 0.6875 -0.90625 0.710938 -1.148438 0.765625 -1.421875 C 0.816406 -1.691406 0.894531 -2.035156 1 -2.453125 L 1.109375 -2.875 C 1.066406 -2.875 1.007812 -2.875 0.9375 -2.875 C 0.757812 -2.875 0.632812 -2.898438 0.5625 -2.953125 C 0.5 -3.003906 0.46875 -3.097656 0.46875 -3.234375 C 0.46875 -3.367188 0.503906 -3.523438 0.578125 -3.703125 C 0.765625 -3.640625 0.96875 -3.609375 1.1875 -3.609375 C 1.175781 -3.804688 1.125 -4.015625 1.03125 -4.234375 C 1.207031 -4.390625 1.398438 -4.507812 1.609375 -4.59375 C 1.816406 -4.6875 2.03125 -4.734375 2.25 -4.734375 C 2.4375 -4.734375 2.566406 -4.691406 2.640625 -4.609375 C 2.722656 -4.523438 2.765625 -4.394531 2.765625 -4.21875 C 2.765625 -4.125 2.734375 -3.96875 2.671875 -3.75 C 2.710938 -3.75 2.769531 -3.75 2.84375 -3.75 Z M 2.84375 -3.75 "/></g></g></g><g fill="#ffffff" fill-opacity="1"><g transform="translate(75.843179, 20.21538)"><g/></g></g><g fill="#ffffff" fill-opacity="1"><g transform="translate(77.782257, 20.21538)"><g/></g></g><g fill="#ffffff" fill-opacity="1"><g transform="translate(79.721336, 20.21538)"><g/></g></g><g fill="#057ea8" fill-opacity="1"><g transform="translate(81.660872, 20.21538)"><g><path d="M 1.171875 0.171875 C 0.890625 0.171875 0.6875 0.101562 0.5625 -0.03125 C 0.4375 -0.175781 0.375 -0.390625 0.375 -0.671875 C 0.375 -0.847656 0.421875 -1.195312 0.515625 -1.71875 C 0.609375 -2.238281 0.703125 -2.710938 0.796875 -3.140625 L 0.453125 -3.6875 C 0.898438 -3.9375 1.316406 -4.0625 1.703125 -4.0625 C 1.890625 -4.0625 2.03125 -4.015625 2.125 -3.921875 C 2.21875 -3.835938 2.265625 -3.710938 2.265625 -3.546875 C 2.265625 -3.441406 2.25 -3.328125 2.21875 -3.203125 C 2.1875 -3.078125 2.148438 -2.960938 2.109375 -2.859375 L 2.171875 -2.828125 C 2.429688 -3.265625 2.703125 -3.578125 2.984375 -3.765625 C 3.273438 -3.960938 3.597656 -4.0625 3.953125 -4.0625 C 4.203125 -4.0625 4.398438 -4 4.546875 -3.875 C 4.691406 -3.75 4.765625 -3.5625 4.765625 -3.3125 C 4.765625 -3.175781 4.742188 -3.023438 4.703125 -2.859375 L 4.765625 -2.828125 C 5.023438 -3.265625 5.296875 -3.578125 5.578125 -3.765625 C 5.867188 -3.960938 6.191406 -4.0625 6.546875 -4.0625 C 6.816406 -4.0625 7.019531 -3.992188 7.15625 -3.859375 C 7.289062 -3.734375 7.359375 -3.53125 7.359375 -3.25 C 7.359375 -3.09375 7.34375 -2.929688 7.3125 -2.765625 C 7.28125 -2.597656 7.234375 -2.375 7.171875 -2.09375 C 7.097656 -1.789062 7.046875 -1.539062 7.015625 -1.34375 C 6.984375 -1.15625 6.96875 -0.96875 6.96875 -0.78125 C 6.96875 -0.5 7.015625 -0.289062 7.109375 -0.15625 C 6.867188 0.0625 6.617188 0.171875 6.359375 0.171875 C 6.078125 0.171875 5.875 0.109375 5.75 -0.015625 C 5.625 -0.148438 5.5625 -0.347656 5.5625 -0.609375 C 5.5625 -0.816406 5.582031 -1.019531 5.625 -1.21875 C 5.675781 -1.414062 5.738281 -1.644531 5.8125 -1.90625 C 5.863281 -2.101562 5.898438 -2.257812 5.921875 -2.375 C 5.953125 -2.488281 5.96875 -2.597656 5.96875 -2.703125 C 5.96875 -2.898438 5.894531 -3 5.75 -3 C 5.570312 -3 5.375 -2.898438 5.15625 -2.703125 C 4.9375 -2.515625 4.75 -2.25 4.59375 -1.90625 C 4.4375 -1.5625 4.359375 -1.1875 4.359375 -0.78125 C 4.359375 -0.5 4.410156 -0.289062 4.515625 -0.15625 C 4.273438 0.0625 4.023438 0.171875 3.765625 0.171875 C 3.484375 0.171875 3.28125 0.109375 3.15625 -0.015625 C 3.03125 -0.148438 2.96875 -0.347656 2.96875 -0.609375 C 2.96875 -0.816406 2.988281 -1.019531 3.03125 -1.21875 C 3.070312 -1.414062 3.132812 -1.644531 3.21875 -1.90625 C 3.269531 -2.101562 3.304688 -2.257812 3.328125 -2.375 C 3.359375 -2.488281 3.375 -2.597656 3.375 -2.703125 C 3.375 -2.898438 3.296875 -3 3.140625 -3 C 2.972656 -3 2.78125 -2.898438 2.5625 -2.703125 C 2.34375 -2.515625 2.15625 -2.25 2 -1.90625 C 1.84375 -1.5625 1.765625 -1.1875 1.765625 -0.78125 C 1.765625 -0.5 1.8125 -0.289062 1.90625 -0.15625 C 1.664062 0.0625 1.421875 0.171875 1.171875 0.171875 Z M 1.171875 0.171875 "/></g></g></g><g fill="#057ea8" fill-opacity="1"><g transform="translate(89.234134, 20.21538)"><g><path d="M 4.265625 -3.078125 C 4.265625 -2.773438 4.160156 -2.507812 3.953125 -2.28125 C 3.742188 -2.050781 3.441406 -1.875 3.046875 -1.75 C 2.648438 -1.632812 2.179688 -1.578125 1.640625 -1.578125 L 1.640625 -1.515625 C 1.640625 -1.203125 1.691406 -0.957031 1.796875 -0.78125 C 1.898438 -0.613281 2.046875 -0.53125 2.234375 -0.53125 C 2.460938 -0.53125 2.648438 -0.613281 2.796875 -0.78125 C 2.953125 -0.945312 3.035156 -1.171875 3.046875 -1.453125 C 3.316406 -1.453125 3.519531 -1.398438 3.65625 -1.296875 C 3.800781 -1.203125 3.875 -1.0625 3.875 -0.875 C 3.875 -0.675781 3.796875 -0.5 3.640625 -0.34375 C 3.484375 -0.1875 3.265625 -0.0625 2.984375 0.03125 C 2.710938 0.125 2.414062 0.171875 2.09375 0.171875 C 1.519531 0.171875 1.078125 0.0234375 0.765625 -0.265625 C 0.453125 -0.566406 0.296875 -0.988281 0.296875 -1.53125 C 0.296875 -2.007812 0.410156 -2.441406 0.640625 -2.828125 C 0.867188 -3.210938 1.1875 -3.515625 1.59375 -3.734375 C 2 -3.953125 2.457031 -4.0625 2.96875 -4.0625 C 3.382812 -4.0625 3.703125 -3.972656 3.921875 -3.796875 C 4.148438 -3.628906 4.265625 -3.390625 4.265625 -3.078125 Z M 2.734375 -3.28125 C 2.515625 -3.28125 2.304688 -3.164062 2.109375 -2.9375 C 1.921875 -2.707031 1.785156 -2.421875 1.703125 -2.078125 C 2.148438 -2.117188 2.492188 -2.210938 2.734375 -2.359375 C 2.972656 -2.503906 3.09375 -2.695312 3.09375 -2.9375 C 3.09375 -3.039062 3.054688 -3.125 2.984375 -3.1875 C 2.921875 -3.25 2.835938 -3.28125 2.734375 -3.28125 Z M 2.734375 -3.28125 "/></g></g></g><g fill="#057ea8" fill-opacity="1"><g transform="translate(93.620793, 20.21538)"><g><path d="M 0.921875 0.171875 C 0.710938 0.171875 0.539062 0.101562 0.40625 -0.03125 C 0.269531 -0.175781 0.203125 -0.347656 0.203125 -0.546875 C 0.203125 -0.691406 0.238281 -0.832031 0.3125 -0.96875 C 0.394531 -1.101562 0.5 -1.207031 0.625 -1.28125 C 0.757812 -1.363281 0.90625 -1.40625 1.0625 -1.40625 C 1.269531 -1.40625 1.441406 -1.332031 1.578125 -1.1875 C 1.710938 -1.050781 1.78125 -0.882812 1.78125 -0.6875 C 1.78125 -0.539062 1.738281 -0.398438 1.65625 -0.265625 C 1.582031 -0.128906 1.476562 -0.0234375 1.34375 0.046875 C 1.21875 0.128906 1.078125 0.171875 0.921875 0.171875 Z M 0.921875 0.171875 "/></g></g></g></svg>